HIERARCHY
ROOT Hips
{
	OFFSET 0.000000 97.167313 0.000000
	CHANNELS 6 Xposition Yposition Zposition Xrotation Yrotation Zrotation
	JOINT Spine
	{
		OFFSET 0.000000 13.784798 0.064400
		CHANNELS 3 Xrotation Yrotation Zrotation
		JOINT Spine1
		{
			OFFSET 0.000000 12.037903 0.404700
			CHANNELS 3 Xrotation Yrotation Zrotation
			JOINT Spine2
			{
				OFFSET 0.000000 17.795601 0.420200
				CHANNELS 3 Xrotation Yrotation Zrotation
				JOINT Neck
				{
					OFFSET 0.000000 39.131302 11.954600
					CHANNELS 3 Xrotation Yrotation Zrotation
					JOINT Head
					{
						OFFSET 0.000000 14.456192 15.627699
						CHANNELS 3 Xrotation Yrotation Zrotation
						JOINT HeadTop_End
						{
							OFFSET 0.000000 15.703506 7.603401
							CHANNELS 3 Xrotation Yrotation Zrotation
							End Site
							{
								OFFSET 0.000000 17.447403 0.000000
							}
						}
					}
				}
				JOINT LeftShoulder
				{
					OFFSET 17.399500 24.608795 1.168800
					CHANNELS 3 Xrotation Yrotation Zrotation
					JOINT LeftArm
					{
						OFFSET 18.980635 5.765305 1.818600
						CHANNELS 3 Xrotation Yrotation Zrotation
						JOINT LeftForeArm
						{
							OFFSET 49.290169 0.000000 0.000000
							CHANNELS 3 Xrotation Yrotation Zrotation
							JOINT LeftHand
							{
								OFFSET 31.562012 0.000000 0.000000
								CHANNELS 3 Xrotation Yrotation Zrotation
								JOINT LeftHandThumb1
								{
									OFFSET 6.133995 -4.388519 7.076070
									CHANNELS 3 Xrotation Yrotation Zrotation
									JOINT LeftHandThumb2
									{
										OFFSET 6.037666 -3.485840 3.485847
										CHANNELS 3 Xrotation Yrotation Zrotation
										JOINT LeftHandThumb3
										{
											OFFSET 6.496506 -3.750763 3.750761
											CHANNELS 3 Xrotation Yrotation Zrotation
											JOINT LeftHandThumb4
											{
												OFFSET 5.616882 -3.242905 3.242910
												CHANNELS 3 Xrotation Yrotation Zrotation
												End Site
												{
													OFFSET -1.254608 7.132141 0.375429
												}
											}
										}
									}
								}
								JOINT LeftHandPinky1
								{
									OFFSET 18.920792 -0.453171 -11.426712
									CHANNELS 3 Xrotation Yrotation Zrotation
									JOINT LeftHandPinky2
									{
										OFFSET 4.919586 0.000000 0.000000
										CHANNELS 3 Xrotation Yrotation Zrotation
										JOINT LeftHandPinky3
										{
											OFFSET 5.233047 0.000000 0.000000
											CHANNELS 3 Xrotation Yrotation Zrotation
											JOINT LeftHandPinky4
											{
												OFFSET 5.571716 0.000000 0.000000
												CHANNELS 3 Xrotation Yrotation Zrotation
												End Site
												{
													OFFSET -3.459808 4.342407 -0.466164
												}
											}
										}
									}
								}
								JOINT LeftHandRing1
								{
									OFFSET 22.726120 -0.094986 -6.500475
									CHANNELS 3 Xrotation Yrotation Zrotation
									JOINT LeftHandRing2
									{
										OFFSET 6.408615 0.000000 0.000000
										CHANNELS 3 Xrotation Yrotation Zrotation
										JOINT LeftHandRing3
										{
											OFFSET 6.150223 0.000000 0.000000
											CHANNELS 3 Xrotation Yrotation Zrotation
											JOINT LeftHandRing4
											{
												OFFSET 6.145386 0.000000 0.000000
												CHANNELS 3 Xrotation Yrotation Zrotation
												End Site
												{
													OFFSET -3.671402 4.923981 -0.202372
												}
											}
										}
									}
								}
								JOINT LeftHandMiddle1
								{
									OFFSET 23.373947 0.000000 0.000001
									CHANNELS 3 Xrotation Yrotation Zrotation
									JOINT LeftHandMiddle2
									{
										OFFSET 6.996567 0.000000 0.000000
										CHANNELS 3 Xrotation Yrotation Zrotation
										JOINT LeftHandMiddle3
										{
											OFFSET 7.015945 0.000000 0.000000
											CHANNELS 3 Xrotation Yrotation Zrotation
											JOINT LeftHandMiddle4
											{
												OFFSET 7.721573 0.000000 0.000000
												CHANNELS 3 Xrotation Yrotation Zrotation
												End Site
												{
													OFFSET -4.651108 6.158463 0.251582
												}
											}
										}
									}
								}
								JOINT LeftHandIndex1
								{
									OFFSET 21.310577 -0.490082 6.209344
									CHANNELS 3 Xrotation Yrotation Zrotation
									JOINT LeftHandIndex2
									{
										OFFSET 7.536453 0.000000 0.000000
										CHANNELS 3 Xrotation Yrotation Zrotation
										JOINT LeftHandIndex3
										{
											OFFSET 7.512344 0.000000 0.000000
											CHANNELS 3 Xrotation Yrotation Zrotation
											JOINT LeftHandIndex4
											{
												OFFSET 10.212402 0.000000 0.000001
												CHANNELS 3 Xrotation Yrotation Zrotation
												End Site
												{
													OFFSET -5.180801 8.690506 1.388433
												}
											}
										}
									}
								}
							}
						}
					}
				}
				JOINT RightShoulder
				{
					OFFSET -17.399500 24.608795 1.168800
					CHANNELS 3 Xrotation Yrotation Zrotation
					JOINT RightArm
					{
						OFFSET -18.980635 5.765305 1.818600
						CHANNELS 3 Xrotation Yrotation Zrotation
						JOINT RightForeArm
						{
							OFFSET -49.290169 0.000000 0.000000
							CHANNELS 3 Xrotation Yrotation Zrotation
							JOINT RightHand
							{
								OFFSET -31.562012 0.000000 0.000000
								CHANNELS 3 Xrotation Yrotation Zrotation
								JOINT RightHandThumb1
								{
									OFFSET -6.133995 -4.388519 7.076070
									CHANNELS 3 Xrotation Yrotation Zrotation
									JOINT RightHandThumb2
									{
										OFFSET -6.037666 -3.485840 3.485847
										CHANNELS 3 Xrotation Yrotation Zrotation
										JOINT RightHandThumb3
										{
											OFFSET -6.496506 -3.750763 3.750761
											CHANNELS 3 Xrotation Yrotation Zrotation
											JOINT RightHandThumb4
											{
												OFFSET -5.616882 -3.242905 3.242910
												CHANNELS 3 Xrotation Yrotation Zrotation
												End Site
												{
													OFFSET 1.254608 7.132141 0.375429
												}
											}
										}
									}
								}
								JOINT RightHandIndex1
								{
									OFFSET -21.310577 -0.490082 6.209344
									CHANNELS 3 Xrotation Yrotation Zrotation
									JOINT RightHandIndex2
									{
										OFFSET -7.536453 0.000000 0.000000
										CHANNELS 3 Xrotation Yrotation Zrotation
										JOINT RightHandIndex3
										{
											OFFSET -7.512344 0.000000 0.000000
											CHANNELS 3 Xrotation Yrotation Zrotation
											JOINT RightHandIndex4
											{
												OFFSET -10.212402 0.000000 0.000001
												CHANNELS 3 Xrotation Yrotation Zrotation
												End Site
												{
													OFFSET 5.180801 8.690506 1.388433
												}
											}
										}
									}
								}
								JOINT RightHandMiddle1
								{
									OFFSET -23.373947 0.000000 0.000001
									CHANNELS 3 Xrotation Yrotation Zrotation
									JOINT RightHandMiddle2
									{
										OFFSET -6.996567 0.000000 0.000000
										CHANNELS 3 Xrotation Yrotation Zrotation
										JOINT RightHandMiddle3
										{
											OFFSET -7.015945 0.000000 0.000000
											CHANNELS 3 Xrotation Yrotation Zrotation
											JOINT RightHandMiddle4
											{
												OFFSET -7.721573 0.000000 0.000000
												CHANNELS 3 Xrotation Yrotation Zrotation
												End Site
												{
													OFFSET 4.651108 6.158463 0.251582
												}
											}
										}
									}
								}
								JOINT RightHandRing1
								{
									OFFSET -22.726120 -0.094986 -6.500475
									CHANNELS 3 Xrotation Yrotation Zrotation
									JOINT RightHandRing2
									{
										OFFSET -6.408615 0.000000 0.000000
										CHANNELS 3 Xrotation Yrotation Zrotation
										JOINT RightHandRing3
										{
											OFFSET -6.150223 0.000000 0.000000
											CHANNELS 3 Xrotation Yrotation Zrotation
											JOINT RightHandRing4
											{
												OFFSET -6.145386 0.000000 0.000000
												CHANNELS 3 Xrotation Yrotation Zrotation
												End Site
												{
													OFFSET 3.671402 4.923981 -0.202372
												}
											}
										}
									}
								}
								JOINT RightHandPinky1
								{
									OFFSET -18.920792 -0.453171 -11.426712
									CHANNELS 3 Xrotation Yrotation Zrotation
									JOINT RightHandPinky2
									{
										OFFSET -4.919586 0.000000 0.000000
										CHANNELS 3 Xrotation Yrotation Zrotation
										JOINT RightHandPinky3
										{
											OFFSET -5.233047 0.000000 0.000000
											CHANNELS 3 Xrotation Yrotation Zrotation
											JOINT RightHandPinky4
											{
												OFFSET -5.571716 0.000000 0.000000
												CHANNELS 3 Xrotation Yrotation Zrotation
												End Site
												{
													OFFSET 3.459808 4.342407 -0.466164
												}
											}
										}
									}
								}
							}
						}
					}
				}
			}
		}
	}
	JOINT LeftUpLeg
	{
		OFFSET 19.899099 -7.885101 -3.429500
		CHANNELS 3 Xrotation Yrotation Zrotation
		JOINT LeftLeg
		{
			OFFSET 1.745560 -36.997807 10.304700
			CHANNELS 3 Xrotation Yrotation Zrotation
			JOINT LeftFoot
			{
				OFFSET -1.745558 -29.803308 -13.615400
				CHANNELS 3 Xrotation Yrotation Zrotation
				JOINT LeftToeBase
				{
					OFFSET 1.181900 -18.539904 15.226099
					CHANNELS 3 Xrotation Yrotation Zrotation
					JOINT LeftToe_End
					{
						OFFSET -0.863701 1.402801 16.534700
						CHANNELS 3 Xrotation Yrotation Zrotation
						End Site
						{
							OFFSET 0.000000 16.616566 0.000000
						}
					}
				}
			}
		}
	}
	JOINT RightUpLeg
	{
		OFFSET -19.899099 -7.885101 -3.429500
		CHANNELS 3 Xrotation Yrotation Zrotation
		JOINT RightLeg
		{
			OFFSET -1.745560 -36.997807 10.304700
			CHANNELS 3 Xrotation Yrotation Zrotation
			JOINT RightFoot
			{
				OFFSET 1.745558 -29.803308 -13.615400
				CHANNELS 3 Xrotation Yrotation Zrotation
				JOINT RightToeBase
				{
					OFFSET -1.181900 -18.539904 15.226099
					CHANNELS 3 Xrotation Yrotation Zrotation
					JOINT RightToe_End
					{
						OFFSET 0.863701 1.402801 16.534700
						CHANNELS 3 Xrotation Yrotation Zrotation
						End Site
						{
							OFFSET 0.000000 16.616566 0.000000
						}
					}
				}
			}
		}
	}
}
MOTION
Frames: 4
Frame Time: 0.033333
-0.467494 72.008255 0.691649 -5.399178 -46.316612 -0.344608 9.440925 7.291865 -1.527987 2.187714 0.989901 -0.915631 2.202832 0.982774 -0.894152 0.084651 13.220559 4.538679 8.920924 20.138145 -4.130235 -0.000000 0.000000 0.000000 1.117176 3.546347 -8.633310 -53.487017 4.935508 -51.502994 0.000069 -106.358073 0.000048 1.988606 -7.706151 -15.869241 -6.141230 -11.690801 -6.761697 9.914171 42.595505 3.409843 -0.422813 8.108093 27.509116 -0.000003 0.000003 -0.000003 -3.762449 9.063693 -45.253835 5.342534 5.828997 -85.005297 8.716849 5.103347 -119.369181 -0.000000 0.000000 -0.000002 0.469709 4.966833 -39.799447 8.181053 5.368607 -113.503004 3.200495 5.218121 -63.022982 0.000000 0.000002 0.000005 -0.461475 3.841586 -39.722679 6.450757 5.820360 -95.892837 2.182890 4.561564 -51.127723 0.000001 -0.000003 0.000001 0.255304 3.378209 -45.814351 5.654096 5.847761 -88.067441 2.162140 4.544813 -50.866393 -0.000001 0.000003 0.000002 3.036129 13.027201 -5.371408 -48.713715 27.172827 83.457057 0.000084 105.988287 -0.000052 -8.345378 17.548103 8.775683 -7.341095 13.749661 7.412315 9.855809 -44.489086 -3.903222 -0.115800 -14.513075 -28.973871 0.000002 -0.000001 0.000002 -0.124382 -2.384780 45.108864 4.500587 -4.654540 88.071137 1.723219 -3.618369 50.920133 -0.000001 -0.000003 -0.000002 -0.761612 -2.932908 39.031051 5.133882 -4.632751 95.881608 1.739745 -3.631701 51.181357 0.000001 0.000000 -0.000001 0.154762 -4.068818 39.122664 6.509732 -4.273587 113.462857 2.549583 -4.153920 63.067324 -0.000000 0.000001 -0.000003 -4.198866 -8.025496 44.637779 4.252906 -4.639625 85.014825 6.935980 -4.062638 119.322285 0.000003 -0.000001 -0.000001 -33.569280 4.026716 22.749349 57.659323 -10.178593 2.632256 -21.484276 -5.744453 -18.032963 -1.594031 -0.000007 0.000002 0.000000 -0.000002 -0.000000 -13.809839 -10.723376 -37.478928 58.013981 0.789489 -2.915669 -32.477567 -13.075791 26.173083 -0.013009 0.000013 -0.000001 0.000000 -0.000000 -0.000000 
-0.422470 72.915344 0.678615 -5.857992 -47.661914 -0.555200 8.664150 8.003354 -0.882399 3.652785 1.845663 -1.153738 3.663195 1.840441 -1.133513 0.773640 11.045390 3.210433 8.264844 20.646306 -5.571709 -0.000001 -0.000000 -0.000000 0.665135 2.343122 -6.649163 -48.343051 4.459613 -54.851265 0.000092 -106.537188 0.000063 -0.881655 -7.949889 -14.459461 -6.141231 -11.690807 -6.761689 9.914166 42.595505 3.409840 -0.422822 8.108093 27.509120 0.000001 -0.000001 0.000001 -3.762451 9.063687 -45.253832 5.342540 5.829003 -85.005304 8.716850 5.103348 -119.369181 0.000001 -0.000001 -0.000002 0.469710 4.966827 -39.799447 8.181052 5.368603 -113.503004 3.200498 5.218119 -63.022989 -0.000001 0.000004 0.000004 -0.461478 3.841583 -39.722679 6.450757 5.820359 -95.892837 2.182889 4.561564 -51.127723 0.000002 -0.000002 0.000004 0.255307 3.378206 -45.814351 5.654099 5.847759 -88.067441 2.162138 4.544810 -50.866393 -0.000002 0.000003 0.000002 4.414072 14.831985 -3.973498 -48.720484 27.766514 77.273598 0.000104 107.085318 -0.000090 -11.130780 16.681164 10.298149 -7.341094 13.749662 7.412319 9.855811 -44.489083 -3.903223 -0.115799 -14.513073 -28.973867 -0.000001 0.000001 -0.000000 -0.124382 -2.384778 45.108871 4.500584 -4.654546 88.071143 1.723219 -3.618370 50.920133 -0.000002 -0.000003 -0.000002 -0.761613 -2.932909 39.031051 5.133885 -4.632750 95.881608 1.739746 -3.631700 51.181353 -0.000001 0.000000 -0.000008 0.154760 -4.068822 39.122664 6.509728 -4.273589 113.462870 2.549586 -4.153923 63.067330 -0.000002 0.000001 -0.000001 -4.198868 -8.025500 44.637783 4.252910 -4.639628 85.014818 6.935978 -4.062633 119.322285 0.000003 0.000001 0.000004 -31.487097 4.949956 22.811505 55.805634 -9.381650 2.307051 -21.327612 -5.570181 -18.280086 -1.594031 -0.000009 0.000002 -0.000000 -0.000002 -0.000000 -14.670329 -10.554398 -37.174698 56.763578 1.298230 -3.487833 -31.136353 -12.402916 25.453948 -0.013009 0.000013 -0.000000 -0.000000 0.000000 -0.000000 
-0.340209 74.005104 0.686294 -6.105226 -50.537014 -0.504990 7.859809 9.149315 0.461147 5.376024 3.018263 -1.184813 5.379909 3.016260 -1.166765 1.464157 7.840542 1.679342 7.460073 17.682021 -6.347825 0.000001 0.000000 -0.000001 0.060555 0.499346 -3.426549 -40.758215 5.518073 -58.846547 0.000131 -107.077900 0.000120 -3.219903 -8.831898 -13.436988 -6.141229 -11.690807 -6.761692 9.914165 42.595505 3.409841 -0.422817 8.108094 27.509116 0.000002 -0.000004 -0.000002 -3.762449 9.063684 -45.253832 5.342531 5.828997 -85.005297 8.716848 5.103350 -119.369181 0.000002 0.000001 -0.000004 0.469710 4.966828 -39.799441 8.181054 5.368604 -113.503004 3.200496 5.218119 -63.022989 0.000002 0.000001 0.000005 -0.461479 3.841584 -39.722679 6.450750 5.820364 -95.892837 2.182887 4.561561 -51.127719 -0.000002 0.000001 0.000004 0.255310 3.378207 -45.814348 5.654095 5.847757 -88.067435 2.162140 4.544814 -50.866396 -0.000001 0.000005 0.000002 5.961302 17.563901 -2.388008 -50.733573 30.142216 71.490005 -0.000002 106.592178 0.000020 -13.318290 14.835627 11.617720 -7.341097 13.749659 7.412313 9.855812 -44.489079 -3.903230 -0.115798 -14.513069 -28.973867 -0.000000 -0.000002 0.000002 -0.124383 -2.384782 45.108864 4.500590 -4.654543 88.071137 1.723220 -3.618367 50.920136 -0.000001 -0.000001 -0.000001 -0.761610 -2.932910 39.031048 5.133883 -4.632752 95.881608 1.739744 -3.631703 51.181357 0.000000 0.000002 -0.000004 0.154762 -4.068821 39.122664 6.509734 -4.273589 113.462870 2.549584 -4.153919 63.067317 -0.000002 -0.000000 -0.000003 -4.198871 -8.025501 44.637779 4.252913 -4.639630 85.014825 6.935979 -4.062635 119.322285 -0.000000 0.000000 -0.000001 -28.368093 6.530454 22.414222 53.559888 -8.955111 2.131534 -21.624551 -3.520167 -18.291532 -1.594031 -0.000007 0.000002 0.000000 0.000000 0.000000 -17.023741 -9.542311 -36.537335 55.528185 2.338039 -4.901452 -29.085777 -11.450833 24.508298 -0.013009 0.000013 -0.000000 -0.000000 0.000001 -0.000000 
0.020195 75.301636 0.535379 -6.263713 -55.116403 -0.378745 8.284640 8.236608 1.800585 7.757480 3.280341 -1.249163 7.755004 3.282436 -1.235943 2.096872 3.796194 2.002169 2.054114 11.363338 -3.271304 -0.000000 -0.000001 -0.000001 -0.588721 -1.675146 1.279320 -28.803362 11.970345 -60.221266 -0.000022 -111.342438 -0.000058 -5.214195 -9.470086 -16.004245 -6.141228 -11.690804 -6.761692 9.914170 42.595505 3.409832 -0.422819 8.108093 27.509116 -0.000003 0.000001 -0.000002 -3.762447 9.063687 -45.253828 5.342532 5.828997 -85.005304 8.716851 5.103351 -119.369181 -0.000001 -0.000003 -0.000003 0.469709 4.966832 -39.799447 8.181049 5.368604 -113.503004 3.200495 5.218122 -63.022989 -0.000000 -0.000002 -0.000000 -0.461474 3.841584 -39.722676 6.450756 5.820366 -95.892844 2.182888 4.561562 -51.127726 -0.000002 -0.000003 0.000004 0.255310 3.378211 -45.814344 5.654099 5.847762 -88.067435 2.162138 4.544814 -50.866396 -0.000001 -0.000000 0.000001 7.273216 20.445965 0.163941 -58.071122 38.595630 70.560615 -0.000392 101.651042 0.000419 -13.607467 11.907202 13.505565 -7.341098 13.749659 7.412320 9.855808 -44.489083 -3.903229 -0.115801 -14.513073 -28.973871 -0.000000 0.000000 -0.000002 -0.124384 -2.384784 45.108864 4.500589 -4.654543 88.071143 1.723217 -3.618370 50.920133 0.000000 0.000000 0.000001 -0.761613 -2.932913 39.031048 5.133888 -4.632746 95.881608 1.739742 -3.631702 51.181353 0.000000 -0.000002 -0.000004 0.154761 -4.068824 39.122664 6.509730 -4.273589 113.462863 2.549583 -4.153922 63.067324 0.000001 -0.000002 -0.000002 -4.198868 -8.025499 44.637779 4.252902 -4.639628 85.014825 6.935979 -4.062635 119.322298 0.000001 -0.000000 0.000002 -24.380647 8.737112 21.835251 50.660497 -8.560566 1.669730 -21.911129 -0.182357 -18.093678 -1.594031 -0.000005 0.000002 -0.000000 -0.000000 -0.000000 -20.685554 -7.157751 -35.235143 54.184253 3.683253 -6.514148 -25.912168 -9.975802 23.259362 -0.013009 0.000014 -0.000000 0.000000 0.000000 -0.000001 
